<?xml version="1.0" standalone="no"?>
<!DOCTYPE svg PUBLIC "-//W3C//DTD SVG 20010904//EN"
 "http://www.w3.org/TR/2001/REC-SVG-20010904/DTD/svg10.dtd">
<svg version="1.0" xmlns="http://www.w3.org/2000/svg"
 width="2040.000000pt" height="2040.000000pt" viewBox="0 0 2040.000000 2040.000000"
 preserveAspectRatio="xMidYMid meet">
<metadata>
Created by potrace 1.11, written by Peter Selinger 2001-2013
</metadata>
<g transform="translate(0.000000,2040.000000) scale(0.100000,-0.100000)"
fill="#000000" stroke="none">
<path d="M9198 20345 c-3 -3 -63 -9 -218 -20 -41 -3 -95 -8 -120 -10 -25 -2
-89 -7 -143 -10 -54 -4 -106 -8 -115 -10 -9 -1 -53 -6 -97 -9 -44 -4 -91 -9
-105 -11 -14 -2 -56 -7 -93 -10 -37 -4 -77 -8 -87 -10 -10 -2 -43 -6 -72 -9
-83 -9 -129 -16 -188 -26 -30 -5 -73 -11 -95 -14 -136 -17 -593 -103 -845
-160 -340 -76 -941 -254 -1216 -361 -38 -15 -98 -38 -134 -52 -71 -27 -89 -35
-200 -83 -141 -62 -205 -93 -475 -226 -265 -131 -426 -215 -495 -258 -19 -12
-44 -27 -55 -33 -11 -7 -47 -28 -80 -48 -166 -98 -524 -348 -670 -466 -80 -66
-272 -225 -281 -234 -6 -5 -53 -48 -105 -95 -153 -140 -436 -427 -536 -546
-10 -12 -40 -47 -67 -78 -27 -32 -58 -69 -70 -84 -11 -15 -23 -29 -26 -32 -4
-3 -41 -50 -84 -105 -42 -55 -83 -107 -89 -115 -33 -40 -164 -230 -242 -349
-355 -545 -655 -1238 -830 -1916 -37 -144 -109 -476 -120 -555 -3 -25 -8 -52
-10 -60 -2 -8 -6 -33 -10 -55 -3 -22 -7 -51 -10 -65 -5 -32 -25 -183 -30 -224
-2 -17 -6 -55 -10 -84 -7 -61 -12 -126 -22 -272 -14 -203 -6 -1076 12 -1265 2
-22 6 -72 9 -110 4 -39 8 -81 10 -95 2 -14 7 -50 11 -80 4 -30 8 -68 11 -85 2
-16 6 -50 9 -75 3 -25 13 -88 21 -140 9 -52 18 -108 20 -125 8 -48 63 -348 68
-370 3 -11 15 -70 20 -95 2 -8 6 -28 10 -45 28 -117 38 -163 42 -180 2 -11 15
-65 30 -120 14 -55 27 -109 30 -120 15 -75 130 -460 188 -635 190 -571 330
-892 554 -1265 68 -114 258 -404 383 -585 411 -595 559 -818 696 -1045 107
-177 219 -391 298 -565 31 -69 60 -134 65 -145 72 -159 181 -501 194 -610 24
-194 25 -778 1 -1065 -2 -25 -6 -88 -10 -140 -3 -52 -8 -111 -10 -130 -2 -19
-6 -71 -10 -115 -11 -122 -23 -234 -30 -285 -2 -14 -6 -56 -10 -93 -3 -37 -8
-76 -10 -85 -1 -9 -6 -44 -9 -77 -4 -33 -11 -96 -17 -140 -5 -44 -12 -98 -15
-120 -4 -40 -12 -96 -19 -145 -2 -14 -6 -46 -9 -72 -3 -26 -8 -62 -10 -80 -3
-18 -8 -55 -11 -81 -4 -27 -8 -57 -10 -66 -2 -10 -6 -42 -10 -71 -4 -29 -8
-60 -10 -69 -2 -15 -16 -108 -20 -141 -7 -49 -17 -125 -20 -139 -1 -9 -6 -41
-11 -71 -4 -30 -8 -57 -9 -60 -1 -3 -5 -30 -9 -60 -5 -30 -10 -64 -12 -75 -2
-11 -13 -81 -24 -155 -12 -74 -28 -175 -36 -225 -8 -49 -17 -103 -20 -120 -3
-16 -7 -37 -9 -45 -2 -8 -6 -33 -10 -55 -6 -41 -21 -137 -30 -190 -3 -16 -12
-64 -20 -105 -7 -41 -16 -91 -19 -110 -3 -19 -7 -44 -10 -55 -2 -11 -7 -40
-11 -65 -9 -58 -13 -79 -21 -113 -3 -16 -7 -38 -9 -50 -1 -12 -17 -98 -35
-192 -17 -93 -34 -181 -36 -195 -2 -14 -7 -36 -9 -50 -13 -63 -16 -77 -20
-105 -3 -16 -15 -77 -25 -135 -11 -58 -22 -116 -24 -130 -2 -14 -7 -36 -10
-50 -3 -14 -8 -41 -11 -60 -3 -19 -7 -44 -9 -55 -2 -11 -7 -42 -11 -70 -4 -27
-8 -52 -10 -55 -2 -3 -6 -30 -10 -60 -4 -30 -9 -58 -12 -62 -2 -5 2014 -8
4481 -8 l4486 0 4 23 c5 20 17 98 32 192 29 194 219 862 304 1070 4 11 22 61
40 110 91 253 226 532 329 680 75 107 208 258 221 250 3 -2 76 -7 161 -10 85
-3 181 -8 214 -10 71 -5 202 -14 300 -21 39 -2 100 -6 138 -9 37 -3 97 -7 135
-10 37 -3 108 -7 157 -11 50 -3 113 -7 140 -9 46 -4 99 -7 300 -20 39 -3 97
-7 130 -10 33 -3 96 -7 140 -10 44 -3 107 -7 140 -10 33 -3 101 -7 150 -10 50
-3 110 -8 135 -10 25 -3 81 -7 125 -10 44 -3 112 -8 150 -10 39 -3 99 -7 135
-10 36 -2 110 -8 165 -12 174 -13 263 -6 440 31 396 83 691 242 962 516 187
188 248 322 255 550 2 64 -7 189 -17 240 -32 158 -73 323 -127 510 -106 367
-136 552 -103 648 51 145 142 260 380 475 128 116 159 147 190 193 57 84 22
163 -178 399 -42 49 -88 111 -103 138 -24 44 -25 50 -10 71 8 13 48 45 88 71
224 147 268 177 314 223 72 70 106 144 107 230 1 74 -15 118 -77 211 -20 29
-36 54 -36 56 0 2 -17 30 -39 62 -84 127 -126 219 -135 295 -2 20 -7 45 -10
55 -3 10 -7 29 -10 43 -2 14 -16 72 -29 130 -36 151 -38 163 -38 225 0 140
139 228 396 249 39 3 97 8 130 11 163 13 242 28 372 71 59 19 121 41 137 48
17 8 72 31 121 51 238 99 356 190 426 327 54 105 46 219 -28 417 -85 229 -242
497 -522 891 -73 103 -414 563 -435 587 -6 7 -24 29 -39 50 -26 35 -160 210
-212 278 -13 17 -45 59 -72 95 -26 36 -50 67 -53 70 -9 7 -385 506 -501 665
-200 272 -343 491 -396 605 -35 77 -76 232 -90 340 -9 77 -10 360 -1 450 15
154 18 176 27 230 6 30 13 69 16 85 9 51 13 74 56 275 22 107 43 206 45 220 3
14 11 59 19 100 8 41 17 89 20 105 2 17 7 41 10 55 3 14 8 52 11 85 4 33 8 63
10 66 8 13 18 253 17 414 0 158 -8 329 -18 400 -3 16 -7 46 -9 65 -7 50 -36
212 -42 232 -3 10 -7 30 -10 45 -16 91 -125 472 -199 698 -215 646 -517 1230
-899 1739 -81 107 -226 288 -246 306 -3 3 -32 36 -65 75 -228 263 -573 593
-868 828 -346 276 -740 525 -1157 732 -96 48 -183 91 -193 96 -94 50 -526 228
-707 291 -264 92 -710 222 -840 245 -14 2 -43 9 -65 14 -43 12 -184 41 -310
64 -44 8 -91 17 -105 20 -14 3 -86 14 -160 26 -74 11 -142 22 -150 24 -8 2
-40 7 -70 10 -30 3 -66 7 -80 9 -23 4 -68 9 -190 22 -25 2 -61 6 -80 9 -203
27 -578 43 -1147 50 -166 2 -303 2 -305 0z m627 -1009 c328 -9 409 -14 590
-37 108 -13 346 -49 365 -54 8 -2 31 -6 50 -9 324 -48 935 -215 1225 -336 260
-108 348 -148 490 -220 335 -171 596 -344 875 -579 205 -174 440 -415 570
-587 25 -32 48 -61 51 -64 15 -13 174 -246 231 -340 108 -175 185 -327 308
-605 5 -11 23 -58 41 -105 17 -47 36 -94 40 -105 10 -25 88 -265 94 -291 2
-10 14 -53 25 -94 21 -75 26 -94 34 -127 2 -10 12 -49 21 -88 9 -38 18 -79 20
-90 2 -11 12 -65 23 -120 11 -55 23 -118 26 -139 4 -21 8 -48 11 -60 2 -12 7
-43 10 -71 3 -27 10 -77 15 -110 5 -33 11 -87 15 -120 4 -33 8 -73 10 -90 21
-161 21 -1360 0 -1575 -13 -136 -23 -227 -35 -335 -6 -49 -13 -108 -16 -130
-24 -213 -91 -580 -145 -800 -181 -740 -456 -1295 -894 -1811 -81 -94 -325
-345 -442 -454 -72 -67 -214 -196 -250 -227 -11 -10 -48 -43 -83 -73 -35 -30
-71 -62 -80 -70 -209 -183 -265 -235 -445 -415 -255 -255 -409 -459 -542 -715
-172 -333 -292 -738 -328 -1115 -3 -33 -8 -71 -10 -85 -3 -14 -7 -68 -11 -120
-3 -52 -7 -111 -9 -130 -2 -19 -6 -91 -10 -160 -4 -69 -9 -127 -11 -129 -2 -3
-165 -4 -362 -3 -196 1 -727 2 -1179 3 l-823 1 -1 3256 c-1 6894 2 9442 10
9524 2 14 90 15 526 4z m-1775 -40 c136 -19 202 -46 315 -131 59 -45 79 -54
125 -59 146 -16 358 -180 433 -336 53 -110 66 -178 62 -322 -4 -114 -9 -185
-19 -266 -3 -18 -19 -58 -35 -88 -26 -45 -30 -61 -25 -97 10 -69 33 -184 65
-322 17 -71 32 -137 34 -145 2 -8 15 -62 28 -120 39 -164 40 -166 39 -322 -2
-201 -7 -231 -55 -318 -106 -194 -116 -217 -113 -272 1 -39 16 -84 54 -170 58
-131 73 -166 79 -188 26 -95 24 -650 -2 -815 -6 -34 -15 -88 -22 -125 -7 -44
-33 -140 -85 -319 -27 -96 -50 -193 -50 -216 -1 -32 12 -67 53 -146 l54 -104
-1 -120 c0 -95 -5 -136 -23 -195 -32 -107 -95 -234 -157 -316 -30 -40 -54 -77
-54 -84 0 -11 71 -114 89 -130 19 -17 70 -102 85 -140 9 -25 20 -81 25 -125 9
-86 6 -1027 -3 -1110 -7 -63 -15 -114 -22 -145 -3 -14 -7 -36 -10 -50 -16 -79
-129 -370 -219 -565 -50 -106 -75 -165 -75 -174 0 -4 24 -25 52 -46 118 -89
174 -172 236 -350 54 -153 65 -312 48 -695 -8 -186 -8 -187 -58 -400 -26 -111
-27 -116 -34 -176 -7 -55 -13 -44 87 -157 11 -12 15 -32 14 -60 -8 -124 -33
-184 -116 -271 -66 -70 -68 -56 35 -167 140 -149 187 -253 182 -399 -4 -102
-32 -177 -132 -351 -106 -184 -137 -249 -136 -283 1 -17 20 -85 44 -151 l42
-120 2 -190 c2 -267 -23 -368 -118 -471 -85 -93 -373 -257 -507 -288 -74 -17
-199 -14 -334 9 -83 14 -120 29 -262 102 -35 18 -103 40 -165 53 -230 48 -378
113 -518 227 -119 97 -132 104 -167 97 -16 -4 -82 -31 -147 -60 -152 -70 -250
-102 -356 -118 -269 -39 -505 42 -724 252 -104 99 -172 194 -219 301 -69 162
-83 310 -45 492 35 165 1 207 -180 224 -251 23 -376 140 -432 405 -18 86 -25
125 -38 240 -25 225 -50 351 -85 429 -15 34 -75 100 -228 251 -264 261 -293
296 -357 434 -77 168 -105 342 -100 626 4 214 16 308 62 508 l27 113 -69 72
c-38 40 -72 74 -75 77 -27 24 -104 131 -120 168 -67 151 -67 152 -68 412 l-1
185 -71 75 c-120 127 -203 270 -268 465 -77 232 -90 390 -38 496 27 56 136
173 210 226 l35 25 -73 111 c-73 114 -150 264 -179 349 -27 81 -35 158 -31
293 4 138 7 161 31 240 43 139 107 224 359 481 157 160 194 203 190 219 -4 11
-8 83 -11 161 -3 111 -1 151 12 185 22 63 21 142 -3 234 -12 44 -24 97 -27
119 -4 21 -8 41 -10 45 -2 3 -7 31 -10 61 -4 30 -9 71 -12 90 -11 72 -9 258 3
325 20 104 84 257 154 370 14 22 29 47 33 55 41 86 190 284 286 381 113 113
211 173 367 224 44 14 98 39 121 56 45 33 65 81 97 234 51 243 176 522 270
603 80 70 301 181 474 239 94 32 115 35 235 37 160 3 256 -6 419 -39 122 -24
130 -26 189 -32 31 -3 68 -3 81 1 30 7 96 66 226 200 312 323 291 305 456 387
230 114 345 160 445 175 19 3 38 8 41 10 3 2 48 6 100 10 52 4 95 7 96 8 5 4
149 -2 193 -8z m3609 -13456 l0 -426 -2427 0 -2426 1 -1 415 c0 228 1 420 3
426 2 7 705 10 2427 10 l2424 0 0 -426z m-2029 -704 c1009 -3 1840 -5 1845 -5
10 -1 15 -829 5 -833 -3 0 -987 -2 -2187 -3 l-2182 -1 3 415 c2 229 4 419 5
423 2 12 48 13 366 11 171 -1 1136 -4 2145 -7z m1575 -1579 c0 -229 -2 -418
-5 -418 -18 -6 -3772 -4 -3775 2 -9 14 -18 254 -19 528 l-1 285 25 6 c14 4
428 8 920 9 492 1 896 3 897 4 1 1 442 2 980 1 l978 0 0 -417z"/>
<path d="M7700 19143 c-230 -31 -467 -131 -617 -259 -56 -48 -221 -194 -253
-224 -39 -36 -92 -81 -214 -181 -8 -7 3 -15 144 -103 94 -58 80 -49 243 -158
76 -51 154 -103 173 -116 l34 -22 65 62 c82 78 142 120 223 159 116 55 247 72
289 37 32 -27 16 -40 -218 -173 -152 -86 -222 -141 -267 -212 -30 -47 -75
-167 -86 -228 -2 -16 -7 -40 -10 -52 -3 -13 -8 -32 -10 -42 -16 -70 -40 -140
-56 -161 -15 -20 -21 -22 -33 -11 -39 31 -41 154 -6 292 28 112 28 121 8 159
-20 38 -71 96 -107 122 -19 13 -30 14 -55 6 -85 -29 -247 -164 -292 -243 -29
-51 -47 -126 -46 -192 0 -65 27 -143 103 -308 65 -141 78 -186 58 -210 -21
-25 -56 -17 -122 29 -250 176 -295 193 -503 191 -66 -1 -128 2 -137 7 -22 11
-14 33 26 76 43 46 100 74 155 75 52 0 177 -11 204 -19 24 -7 48 48 91 217 19
74 42 151 51 172 53 127 178 256 282 292 58 20 49 41 -41 102 -142 95 -363
188 -501 209 -22 3 -43 8 -46 10 -12 7 -166 18 -254 18 -495 0 -810 -183 -954
-554 -38 -97 -126 -428 -117 -438 7 -6 54 -13 126 -17 41 -3 100 -7 130 -10
30 -3 84 -7 120 -10 36 -3 70 -8 77 -10 15 -5 23 17 23 63 1 48 23 147 44 196
50 119 174 200 341 224 62 9 287 8 340 -2 54 -9 85 -31 85 -61 0 -45 -39 -59
-200 -70 -47 -3 -110 -8 -141 -10 -95 -7 -156 -29 -226 -82 -80 -61 -139 -188
-122 -262 9 -40 31 -63 214 -216 182 -153 221 -198 227 -265 3 -30 0 -35 -19
-38 -25 -4 -69 28 -243 172 -252 208 -393 261 -700 261 -134 0 -263 -15 -301
-36 -9 -4 -31 -11 -48 -14 -54 -9 -196 -87 -258 -140 -181 -156 -248 -244
-357 -470 -112 -232 -118 -260 -121 -480 -1 -148 2 -193 18 -255 10 -41 23
-79 28 -84 5 -6 9 -18 9 -27 0 -28 16 -31 67 -14 138 47 430 78 504 54 32 -11
59 -34 59 -51 0 -15 -39 -27 -111 -34 -130 -11 -244 -31 -281 -48 -50 -24
-138 -110 -181 -177 -57 -90 -66 -197 -30 -373 11 -59 10 -116 -4 -135 -7 -11
-60 -46 -116 -77 -124 -69 -165 -99 -240 -177 -69 -71 -112 -136 -180 -272
l-50 -100 -1 -135 c-1 -143 7 -310 17 -347 19 -75 127 -277 179 -337 43 -50
92 -55 193 -22 68 23 180 49 260 60 139 20 168 40 315 216 30 36 71 86 90 110
73 92 209 256 236 286 87 94 254 183 376 201 58 8 229 9 251 0 9 -3 17 -15 17
-25 0 -28 -92 -73 -235 -117 -171 -52 -236 -76 -267 -97 -14 -10 -30 -18 -35
-18 -13 0 -103 -88 -150 -145 -51 -63 -177 -255 -210 -318 -13 -27 -27 -72
-30 -100 -10 -83 -46 -110 -143 -109 -16 0 -188 13 -205 16 -55 8 -274 -87
-410 -177 -88 -59 -186 -163 -218 -231 -26 -54 -28 -68 -26 -163 2 -150 53
-298 150 -440 44 -65 143 -163 164 -163 17 0 32 14 131 122 28 30 79 74 113
98 63 42 83 71 95 135 2 17 8 43 11 60 31 150 240 451 340 489 43 17 112 18
127 2 34 -33 -4 -91 -122 -186 -69 -56 -91 -79 -130 -135 -99 -144 -136 -361
-95 -561 35 -167 99 -294 233 -460 96 -118 118 -152 107 -162 -4 -4 -29 -6
-56 -6 -41 1 -56 7 -95 39 -117 96 -193 219 -280 457 -49 132 -70 178 -84 178
-14 0 -87 -80 -125 -136 -129 -192 -125 -534 9 -730 36 -53 115 -133 148 -150
35 -18 47 -12 118 61 63 66 96 85 144 85 64 0 59 -16 -40 -147 -35 -46 -79
-114 -98 -151 -41 -82 -95 -239 -112 -327 -2 -11 -6 -31 -9 -45 -20 -97 -28
-423 -13 -520 4 -25 9 -56 11 -70 7 -43 37 -143 58 -187 10 -24 19 -45 19 -48
0 -12 96 -162 124 -194 123 -139 337 -332 401 -361 37 -17 43 -17 75 -3 163
71 201 83 223 72 34 -18 36 -28 20 -83 -23 -76 -37 -100 -110 -176 l-66 -70 6
-218 c6 -217 21 -325 58 -407 20 -46 69 -115 103 -146 69 -64 273 -139 376
-139 48 0 50 1 50 28 0 16 -9 55 -19 88 -22 67 -31 144 -35 294 -4 129 6 170
38 170 26 0 43 -30 51 -88 3 -21 8 -46 10 -58 3 -12 9 -52 15 -90 15 -102 19
-123 37 -184 9 -30 16 -58 15 -62 -3 -12 5 -10 48 12 48 24 78 25 106 2 27
-22 37 -41 75 -149 17 -48 36 -94 42 -102 28 -34 99 -68 273 -130 76 -28 124
-56 124 -75 0 -7 -14 -19 -31 -26 -26 -11 -43 -10 -104 3 -96 21 -176 53 -368
148 l-158 78 -9 -24 c-38 -99 -77 -273 -74 -330 2 -62 15 -128 34 -175 97
-247 310 -482 495 -549 95 -34 249 -46 340 -28 17 4 45 9 64 12 76 13 279 102
356 156 84 60 80 52 54 104 -49 98 -73 111 -223 120 -47 3 -88 11 -102 20 -52
34 -18 55 111 69 121 13 151 17 162 24 16 10 28 108 38 307 10 223 21 285 50
285 56 0 98 -68 96 -153 -1 -34 -3 -73 -6 -87 -3 -14 -7 -59 -11 -102 -3 -42
-7 -89 -9 -105 -10 -78 -7 -293 5 -329 20 -63 95 -167 161 -225 111 -97 192
-143 349 -198 36 -13 72 -26 80 -29 47 -17 100 -26 100 -18 0 4 -6 19 -14 34
-21 43 -71 198 -96 300 -22 93 -23 94 -76 133 -79 58 -89 82 -89 214 0 101 2
115 29 168 48 99 132 140 281 140 133 0 303 -31 327 -60 10 -13 8 -18 -11 -34
-19 -15 -31 -18 -60 -12 -20 5 -79 8 -131 7 -76 0 -103 -4 -135 -21 -84 -45
-144 -138 -123 -193 5 -14 22 -45 38 -70 26 -40 52 -124 67 -215 10 -62 55
-203 84 -261 64 -133 178 -251 280 -288 66 -25 148 -25 271 -1 89 18 267 93
345 146 94 65 162 171 199 309 28 106 23 324 -11 460 -11 43 -20 68 -30 82
-10 16 -14 16 -46 -4 -31 -19 -288 -206 -299 -218 -3 -3 -28 -22 -57 -43 -58
-42 -110 -64 -123 -51 -15 15 -20 66 -8 88 18 34 87 93 168 143 199 124 324
255 478 498 6 11 31 58 55 105 38 77 42 93 45 172 6 134 -36 245 -137 359 -85
97 -137 99 -346 15 -204 -83 -268 -98 -425 -102 -161 -4 -256 12 -565 97 -211
58 -286 95 -271 135 5 14 17 16 82 11 41 -4 79 -9 85 -12 5 -4 22 -9 37 -11
34 -6 145 -38 241 -70 127 -42 188 -51 337 -48 76 2 150 5 164 8 14 3 49 11
79 17 172 36 425 154 513 240 72 71 78 98 50 228 -37 171 -28 296 37 521 54
190 65 267 65 485 0 212 -8 279 -51 425 -42 143 -116 254 -206 312 l-49 31
-28 -29 c-61 -64 -117 -104 -146 -104 -36 0 -36 19 0 100 6 14 39 72 75 130
135 222 264 497 336 720 65 201 65 201 61 760 -1 278 -5 517 -9 531 -21 80
-90 223 -124 257 -7 7 -13 17 -13 21 0 5 -35 44 -77 88 -72 74 -102 98 -202
160 -52 33 -301 154 -406 198 -113 48 -171 80 -212 119 -36 33 -44 75 -15 77
32 2 46 -2 232 -73 235 -89 275 -106 429 -180 69 -34 142 -65 161 -69 33 -8
38 -5 85 44 94 98 148 238 144 371 -3 95 -39 236 -60 236 -4 0 -29 -27 -54
-60 -25 -33 -55 -65 -66 -71 -28 -14 -139 -20 -161 -8 -18 10 -18 12 4 42 12
18 50 67 84 109 55 68 164 237 164 255 0 4 9 25 19 47 66 137 136 368 172 561
14 75 18 481 6 571 -13 101 -87 331 -233 724 -76 207 -79 279 -10 280 26 0 53
-34 92 -117 19 -40 38 -73 42 -73 4 0 26 28 49 63 111 169 100 345 -29 478
-85 88 -241 174 -352 194 -64 12 -297 12 -398 1 -269 -31 -492 -212 -554 -449
-9 -34 -17 -73 -19 -87 -8 -60 -31 -104 -63 -122 -18 -10 -33 -17 -35 -17 -1
1 -22 -2 -47 -5 -25 -3 -72 -8 -105 -11 -193 -19 -238 -39 -288 -130 -42 -73
-50 -114 -50 -230 1 -130 24 -222 82 -325 37 -65 61 -122 61 -145 0 -6 -6 -19
-13 -29 -12 -16 -17 -17 -38 -6 -25 14 -167 128 -208 169 -46 44 -176 136
-246 173 -178 93 -255 109 -536 113 -272 3 -348 -8 -579 -84 -275 -90 -391
-193 -529 -468 -78 -156 -170 -376 -163 -390 1 -2 -5 -21 -13 -44 -22 -60 -27
-118 -27 -279 -1 -134 1 -149 24 -200 14 -30 28 -64 32 -76 11 -35 -30 -61
-174 -112 -236 -83 -365 -182 -442 -339 -26 -53 -31 -76 -32 -136 -1 -66 3
-79 42 -157 74 -146 88 -246 41 -296 -35 -37 -88 -8 -149 81 -119 175 -152
188 -315 129 -55 -19 -107 -38 -116 -41 -11 -3 -22 8 -36 36 -36 72 -18 157
40 195 12 8 69 22 127 31 182 28 209 35 224 58 8 12 29 67 46 122 18 55 44
116 59 135 37 50 158 167 210 202 48 34 180 91 253 109 26 7 50 19 53 26 2 8
0 35 -6 61 -26 112 -16 311 21 450 30 109 159 418 210 502 5 8 22 41 39 72
125 238 267 366 493 442 42 14 88 28 102 31 61 12 74 15 138 25 158 25 511 34
678 18 126 -13 245 -56 413 -150 49 -28 91 -47 95 -44 7 8 9 21 17 115 16 216
18 229 40 291 38 109 136 227 212 256 44 17 177 24 252 14 40 -6 38 -9 87 128
20 56 53 128 74 160 112 172 324 318 495 340 68 9 435 9 510 0 88 -11 108 -15
249 -54 70 -19 130 -33 133 -31 2 3 0 31 -6 63 -19 101 -121 204 -346 349 -49
31 -122 78 -162 104 -39 25 -79 59 -89 75 -16 27 -16 30 0 42 22 16 65 9 146
-24 59 -23 233 -118 270 -146 8 -6 34 -22 57 -34 47 -25 53 -21 60 37 2 20 16
106 30 191 59 353 25 501 -156 678 -64 62 -170 147 -175 140 -2 -1 -10 -32
-19 -68 -36 -149 -44 -152 -103 -40 -79 151 -159 217 -317 260 -95 26 -236 31
-367 13z m423 -2984 c9 -12 17 -27 17 -33 0 -18 -43 -55 -145 -125 -175 -119
-177 -122 -174 -271 2 -63 5 -121 7 -128 2 -7 57 -47 121 -90 64 -42 122 -81
129 -87 7 -5 43 -35 81 -65 79 -63 102 -96 90 -128 -5 -12 -14 -23 -21 -23 -7
-1 -23 -3 -36 -4 -25 -2 -78 33 -156 102 -97 87 -249 176 -368 216 -219 75
-540 83 -782 21 -180 -46 -327 -123 -454 -236 -68 -61 -68 -61 -157 -22 -228
99 -403 108 -541 28 -127 -74 -174 -178 -152 -335 12 -88 13 -95 43 -205 15
-54 38 -139 51 -189 45 -164 41 -239 -10 -219 -59 23 -175 374 -203 614 -4 36
-7 108 -7 160 1 111 17 152 91 231 99 106 210 149 402 155 143 5 243 -16 315
-65 l41 -29 61 44 c137 97 334 173 539 209 69 12 230 20 370 18 138 -1 205 -7
354 -33 30 -5 57 -7 60 -4 3 2 6 66 7 142 2 126 4 142 29 194 32 69 70 110
127 140 93 48 238 57 271 17z m158 -1168 l23 -19 -34 -21 c-19 -11 -84 -37
-143 -57 -76 -25 -131 -51 -183 -88 -154 -105 -128 -97 -311 -93 l-162 4 -30
-38 c-39 -48 -70 -128 -72 -182 -2 -53 5 -97 35 -217 12 -52 21 -101 18 -107
-11 -32 -85 1 -141 62 -55 60 -64 102 -58 270 5 141 12 171 58 262 21 41 14
53 -30 47 -14 -1 -60 -5 -101 -8 -103 -7 -177 -21 -283 -52 -121 -35 -186 -71
-287 -155 -121 -101 -178 -141 -190 -134 -5 3 -10 23 -10 43 0 91 34 141 154
227 190 135 408 190 761 190 144 0 154 -1 243 -33 51 -17 112 -32 135 -32 40
0 111 18 162 40 92 41 135 58 135 53 0 -3 6 -1 13 4 6 5 39 18 72 27 33 10 65
19 70 21 6 2 38 4 71 4 46 1 68 -4 85 -18z m-1331 -886 c0 -13 -22 -72 -49
-132 -57 -126 -66 -155 -90 -283 -31 -168 -15 -311 51 -449 42 -89 79 -141
161 -227 159 -168 351 -235 491 -171 61 28 115 78 201 187 33 41 69 83 80 92
37 32 81 22 189 -41 56 -33 117 -64 136 -69 55 -14 160 -8 199 12 19 10 84 66
145 125 119 115 164 143 192 120 37 -31 -12 -193 -80 -260 -88 -88 -158 -110
-336 -104 -116 3 -159 10 -312 49 l-58 14 -20 -26 c-12 -15 -41 -53 -65 -86
-24 -32 -58 -69 -76 -82 -37 -27 -125 -58 -217 -75 l-64 -12 6 -121 c9 -210
25 -258 129 -378 130 -151 139 -165 127 -187 -15 -30 -65 -27 -122 7 -63 37
-105 76 -178 167 -35 42 -72 80 -83 84 -12 4 -55 7 -96 5 -236 -8 -406 -96
-480 -246 -51 -103 -47 -153 21 -296 25 -54 43 -107 46 -139 4 -49 1 -58 -51
-145 -94 -159 -105 -196 -105 -333 0 -187 32 -259 198 -445 114 -128 165 -201
260 -375 160 -295 262 -429 390 -514 148 -98 208 -110 620 -126 193 -8 230
-22 170 -66 -32 -24 -96 -33 -264 -38 -16 -1 -17 -6 -11 -48 4 -27 29 -101 57
-165 54 -125 57 -155 12 -144 -38 10 -89 52 -139 113 -65 79 -90 137 -88 206
l1 57 -47 1 c-63 1 -90 6 -158 30 -108 39 -140 54 -246 116 -41 24 -137 115
-180 171 -24 31 -83 125 -132 207 -198 337 -223 375 -334 486 -162 161 -268
206 -466 197 -151 -8 -239 -49 -403 -187 -40 -33 -81 -61 -91 -61 -23 0 -61
83 -61 133 0 53 58 119 138 157 95 46 240 79 412 95 77 7 132 13 181 21 l36 5
0 137 c-1 133 0 139 32 212 18 41 59 115 93 165 38 57 57 94 52 101 -5 6 -28
36 -52 67 -125 161 -114 410 25 563 60 66 173 137 265 168 60 21 86 24 226 31
68 3 132 10 142 15 24 13 28 27 35 135 3 50 8 111 11 138 4 40 2 48 -13 53
-99 34 -210 85 -262 120 -120 80 -232 207 -295 331 -29 58 -66 184 -66 225 0
15 -4 38 -9 52 -10 24 -10 24 -58 10 -154 -47 -359 -36 -558 31 -59 19 -177
65 -197 76 -45 24 -65 12 -102 -61 -20 -39 -49 -90 -65 -114 -51 -74 -159
-152 -258 -185 -83 -28 -105 -31 -220 -36 -104 -4 -173 9 -173 30 0 11 118 47
200 61 14 3 54 14 90 26 157 51 197 90 296 295 62 127 79 154 100 159 37 9 89
-9 163 -57 162 -105 302 -149 491 -155 149 -4 243 13 277 51 20 23 25 45 38
185 4 40 16 112 25 155 5 22 12 56 15 75 13 76 65 129 137 140 55 8 68 3 68
-25z m-1093 -1204 c7 -1 17 -10 23 -20 16 -31 -20 -62 -160 -137 -175 -93
-280 -166 -375 -259 -93 -92 -113 -115 -173 -205 -70 -104 -155 -282 -167
-351 -3 -18 -8 -35 -10 -39 -17 -27 -25 -332 -12 -445 17 -149 94 -384 182
-552 152 -291 314 -467 566 -615 53 -31 101 -63 108 -71 35 -43 14 -146 -67
-317 -12 -26 -17 -64 -17 -145 0 -116 2 -137 33 -280 24 -118 20 -182 -14
-213 -30 -26 -41 -22 -62 27 -25 59 -57 193 -68 286 -12 98 -11 295 1 367 20
115 13 134 -99 283 -78 102 -197 228 -207 218 -4 -5 -22 -35 -39 -68 -17 -33
-35 -64 -39 -70 -14 -18 -59 -140 -76 -206 -26 -101 -22 -252 11 -369 24 -82
56 -139 138 -241 41 -51 73 -96 70 -101 -32 -51 -267 121 -327 239 -25 49 -44
182 -46 333 l-1 36 -92 2 c-189 4 -368 48 -458 112 -44 31 -53 54 -40 95 18
55 28 55 158 -8 137 -67 169 -75 287 -75 103 0 108 1 131 25 13 14 24 33 24
41 0 21 101 222 112 222 4 0 8 4 8 10 0 5 15 31 34 57 58 82 59 88 36 132 -11
22 -52 84 -91 138 -101 139 -147 227 -205 386 -19 53 -28 57 -64 24 -47 -42
-128 -107 -133 -107 -4 0 -22 -11 -42 -24 -72 -49 -158 -70 -293 -69 -98 0
-126 3 -139 16 -33 32 18 60 150 81 96 16 159 35 207 65 48 29 199 152 230
187 30 35 31 37 23 102 -10 82 -10 402 0 495 9 86 57 227 114 337 l44 85 -73
33 c-96 44 -194 107 -240 155 -81 84 -147 254 -115 295 28 36 84 1 163 -106
117 -156 215 -241 301 -260 49 -11 71 0 123 63 61 73 196 200 256 240 32 22
61 42 64 45 42 42 264 130 314 124 12 -1 26 -3 33 -3z m2613 -1007 c20 -23 3
-60 -57 -124 -138 -150 -266 -205 -491 -211 -34 -1 -66 -7 -71 -13 -6 -7 3
-50 24 -113 83 -254 61 -461 -75 -688 -64 -108 -65 -111 -30 -158 47 -65 184
-202 258 -260 92 -71 97 -81 52 -104 -18 -9 -34 -8 -74 4 -52 16 -100 44 -241
145 -45 31 -110 72 -145 90 -60 30 -73 33 -155 33 -49 -1 -107 -3 -128 -7 -44
-7 -49 -1 -49 58 0 58 22 91 78 114 43 19 68 23 183 35 66 6 91 21 129 77 26
38 67 133 78 181 2 9 7 27 10 40 14 50 13 263 -1 327 -21 99 -55 202 -76 232
-18 25 -92 58 -129 58 -9 0 -27 11 -39 24 -22 23 -22 25 -4 34 19 10 92 9 233
-4 102 -9 210 -9 265 -1 68 10 127 41 240 127 160 122 189 136 215 104z
m-1455 -2156 c20 -17 45 -50 55 -72 10 -23 33 -72 50 -110 16 -38 54 -106 82
-150 78 -122 99 -166 87 -188 -5 -10 -14 -18 -20 -18 -19 0 -70 31 -141 86
-38 29 -76 55 -84 55 -8 1 -20 2 -26 3 -53 8 -293 -104 -367 -170 -86 -77
-113 -190 -86 -351 18 -100 49 -160 165 -314 55 -74 98 -138 96 -144 -5 -16
-71 -7 -123 17 -48 22 -189 154 -215 201 -7 13 -24 44 -38 68 -24 42 -25 53
-28 245 l-4 200 -91 -12 c-51 -7 -123 -19 -162 -28 -38 -9 -88 -17 -110 -19
-34 -2 -40 1 -43 20 -5 34 43 119 80 141 41 25 87 33 211 38 151 6 160 9 237
75 74 63 151 100 235 113 17 3 53 8 80 12 28 5 53 9 58 10 4 1 17 2 30 3 47 3
50 11 31 107 -21 110 -25 151 -18 187 7 35 15 34 59 -5z"/>
</g>
</svg>
