<?xml version="1.0" standalone="no"?>
<!DOCTYPE svg PUBLIC "-//W3C//DTD SVG 20010904//EN"
 "http://www.w3.org/TR/2001/REC-SVG-20010904/DTD/svg10.dtd">
<svg version="1.0" xmlns="http://www.w3.org/2000/svg"
 width="1360.000000pt" height="1530.000000pt" viewBox="0 0 1360.000000 1530.000000"
 preserveAspectRatio="xMidYMid meet">
<metadata>
Created by potrace 1.15, written by Peter Selinger 2001-2017
</metadata>
<g transform="translate(0.000000,1530.000000) scale(0.100000,-0.100000)"
fill="#000000" stroke="none">
<path d="M6040 15257 c-3 -2 -88 -10 -190 -16 -909 -58 -1749 -237 -2500 -534
-170 -68 -596 -275 -785 -382 -827 -468 -1540 -1190 -1963 -1985 -341 -642
-537 -1337 -593 -2095 -15 -209 -6 -836 16 -1035 65 -613 206 -1225 417 -1814
175 -491 288 -698 718 -1316 331 -476 471 -697 594 -940 129 -254 223 -501
260 -680 35 -174 29 -668 -14 -1116 -72 -752 -221 -1743 -406 -2709 -31 -159
-66 -355 -80 -435 -13 -80 -26 -157 -29 -172 l-4 -28 3363 0 3363 0 23 143
c26 159 108 462 199 730 142 417 267 661 420 821 l46 48 150 -6 c83 -3 591
-37 1130 -76 l980 -70 125 21 c318 52 571 179 780 389 118 118 163 190 185
297 32 149 16 295 -65 583 -101 360 -122 452 -118 521 7 125 85 239 283 415
173 154 184 169 171 238 -8 42 -47 100 -131 196 -36 41 -78 94 -92 118 -23 39
-24 44 -10 65 8 12 67 54 132 92 147 88 218 155 240 227 28 97 17 136 -83 281
-80 118 -121 203 -122 250 0 16 -16 90 -35 164 -51 199 -46 243 37 303 59 43
124 59 283 70 190 14 238 24 395 82 275 103 382 174 442 295 28 58 30 69 25
131 -15 170 -140 422 -380 767 -129 185 -276 382 -611 818 -541 705 -711 951
-751 1081 -46 152 -58 254 -51 441 6 181 15 242 90 595 74 352 89 473 90 720
1 300 -33 500 -149 895 -240 812 -610 1439 -1195 2025 -372 371 -755 651
-1230 898 -723 376 -1490 587 -2425 668 -171 15 -934 32 -945 21z m785 -768
c290 -25 676 -97 964 -180 589 -170 1070 -422 1462 -766 649 -568 1014 -1341
1120 -2373 17 -164 17 -981 0 -1175 -83 -964 -290 -1614 -679 -2138 -179 -241
-376 -441 -797 -807 -156 -136 -237 -211 -363 -340 -392 -398 -589 -885 -627
-1551 -4 -63 -8 -127 -10 -144 -2 -16 -4 -47 -4 -68 l-1 -37 -887 2 -888 3 -3
4789 c-2 3825 0 4792 10 4799 16 10 536 0 703 -14z m-1615 -20 c84 -13 157
-47 213 -98 37 -34 51 -41 85 -41 102 0 276 -132 332 -253 46 -97 55 -165 41
-330 -9 -125 -14 -145 -37 -178 l-25 -37 16 -94 c8 -51 39 -185 67 -298 49
-197 51 -210 49 -335 0 -71 -5 -146 -11 -165 -5 -18 -33 -72 -61 -118 -74
-120 -75 -150 -14 -278 26 -55 51 -112 57 -129 31 -99 25 -507 -11 -695 -11
-56 -41 -169 -66 -250 -25 -81 -45 -161 -45 -177 0 -16 15 -54 34 -85 45 -76
56 -110 56 -183 0 -127 -62 -293 -150 -399 -35 -42 -39 -51 -28 -66 7 -9 37
-48 66 -86 87 -114 87 -117 87 -579 0 -429 -7 -515 -51 -656 -29 -93 -107
-283 -163 -398 -23 -47 -41 -90 -40 -95 0 -6 21 -24 47 -41 62 -40 116 -113
153 -210 54 -138 62 -210 56 -470 -6 -219 -8 -237 -42 -375 -19 -80 -35 -158
-35 -173 0 -19 12 -40 41 -68 42 -41 42 -41 37 -103 -6 -74 -32 -127 -87 -181
-23 -21 -41 -42 -41 -45 0 -3 33 -39 73 -80 92 -96 130 -170 135 -263 5 -85
-17 -150 -99 -291 -33 -56 -72 -125 -86 -153 -30 -59 -30 -59 23 -203 25 -70
27 -85 27 -225 -1 -125 -5 -161 -23 -219 -32 -102 -103 -169 -275 -259 -157
-83 -194 -91 -341 -77 -127 12 -171 25 -254 76 -46 28 -81 40 -159 54 -168 31
-285 84 -400 184 -35 31 -72 58 -82 61 -12 4 -66 -17 -141 -54 -238 -117 -443
-123 -642 -18 -98 51 -232 180 -289 277 -80 137 -106 292 -72 420 35 131 12
174 -101 185 -104 9 -158 24 -207 55 -106 67 -152 182 -177 441 -14 146 -37
262 -63 317 -13 28 -57 77 -126 140 -211 193 -284 284 -335 422 -74 201 -76
524 -5 804 l20 79 -79 81 c-89 92 -112 126 -147 220 -23 61 -25 80 -25 228 l0
161 -50 48 c-103 99 -185 258 -236 458 -44 174 -27 261 70 356 33 33 74 69 89
80 l29 20 -56 82 c-63 95 -116 202 -142 288 -28 93 -24 277 8 376 36 110 84
174 259 349 l156 156 -8 59 c-12 96 -10 177 6 220 18 52 19 111 0 166 -26 78
-55 270 -55 363 0 50 7 120 16 156 34 146 213 441 349 576 87 87 169 135 289
169 84 23 119 61 135 145 50 254 135 451 231 533 69 58 308 168 407 187 94 17
267 12 373 -11 172 -37 234 -44 267 -30 28 11 129 111 314 309 60 63 80 77
208 141 78 38 172 80 209 92 131 44 320 60 452 38z m2680 -10089 l0 -320
-1820 0 -1820 0 0 320 0 320 1820 0 1820 0 0 -320z m-1208 -530 l1078 0 0
-315 0 -315 -1640 0 -1640 0 0 313 c0 173 3 317 8 322 4 4 256 5 561 1 305 -3
1040 -6 1633 -6z m868 -1185 l0 -315 -1419 0 -1418 0 -6 83 c-4 45 -7 184 -7
309 l0 227 23 4 c12 2 653 5 1425 6 l1402 1 0 -315z"/>
<path d="M4923 14359 c-147 -19 -321 -85 -422 -161 -31 -23 -105 -87 -166
-143 -60 -56 -137 -123 -170 -150 -33 -26 -61 -49 -63 -50 -2 -2 23 -18 55
-36 63 -36 282 -179 351 -229 l44 -31 56 54 c72 68 130 104 212 134 75 26 138
29 166 9 19 -15 19 -15 -1 -35 -11 -10 -74 -48 -139 -83 -202 -107 -251 -167
-291 -362 -36 -175 -65 -224 -93 -161 -17 38 -14 110 8 195 11 41 20 85 20 98
0 23 -68 105 -102 123 -27 15 -118 -40 -195 -116 -50 -50 -65 -72 -78 -120
-28 -96 -17 -156 61 -317 56 -115 64 -139 54 -157 -16 -30 -48 -26 -100 14
-174 135 -231 153 -450 142 -51 -3 -52 25 -1 73 49 47 97 57 201 41 40 -7 75
-10 77 -7 10 9 52 147 62 201 27 147 137 279 264 319 25 8 16 19 -55 67 -221
150 -505 209 -786 164 -183 -30 -304 -88 -401 -191 -66 -70 -100 -127 -136
-226 -33 -91 -88 -309 -80 -317 4 -3 57 -9 118 -12 62 -4 139 -10 173 -14 l61
-8 6 71 c18 218 158 311 453 300 120 -5 154 -18 154 -59 0 -32 -41 -43 -183
-50 -120 -6 -144 -10 -192 -34 -118 -57 -185 -200 -126 -269 9 -10 71 -63 137
-117 136 -111 176 -156 178 -202 2 -58 -29 -46 -144 54 -197 172 -294 220
-478 239 -173 18 -339 -11 -477 -83 -65 -35 -202 -163 -252 -237 -55 -81 -130
-233 -160 -320 -25 -77 -28 -98 -28 -225 0 -118 4 -151 23 -212 12 -40 27 -73
32 -73 5 0 21 5 37 11 60 23 219 49 297 49 84 0 126 -15 126 -45 0 -18 -17
-22 -151 -34 -72 -6 -119 -16 -146 -29 -56 -29 -138 -122 -157 -178 -20 -59
-20 -99 -1 -219 11 -68 13 -101 5 -115 -6 -10 -52 -40 -103 -66 -133 -69 -217
-156 -289 -299 l-53 -108 0 -166 c0 -158 2 -170 28 -236 31 -77 93 -187 127
-222 28 -30 72 -30 157 2 37 14 108 30 157 35 58 7 100 17 122 31 44 27 110
100 235 261 57 73 126 156 154 183 63 62 169 119 252 135 59 12 205 11 218 -1
26 -27 -59 -73 -210 -114 -193 -52 -246 -91 -372 -276 -88 -130 -113 -179
-113 -222 0 -19 -9 -45 -19 -58 -22 -27 -66 -30 -196 -15 -65 8 -76 6 -150
-23 -169 -65 -307 -166 -360 -263 -27 -48 -30 -62 -29 -138 1 -93 14 -140 72
-259 43 -88 148 -206 175 -195 9 3 39 35 67 70 33 42 70 75 105 95 58 33 57
30 85 159 15 65 52 133 130 239 74 100 109 125 175 126 46 0 50 -2 52 -25 3
-30 -30 -69 -110 -129 -92 -70 -147 -171 -167 -306 -15 -99 -7 -186 26 -285
37 -111 77 -178 165 -281 44 -51 78 -98 76 -104 -2 -5 -19 -11 -39 -13 -27 -2
-45 4 -79 30 -89 68 -159 187 -224 381 -22 64 -40 101 -47 99 -21 -4 -97 -94
-119 -140 -75 -153 -64 -368 25 -507 40 -61 109 -125 136 -125 11 0 29 10 39
23 47 53 57 64 81 80 13 9 39 17 57 17 48 0 43 -26 -19 -96 -132 -151 -208
-423 -195 -699 9 -186 50 -311 141 -440 58 -80 258 -271 313 -298 l43 -21 52
23 c126 54 136 57 155 38 16 -15 16 -20 -1 -74 -14 -44 -31 -70 -72 -111 l-54
-53 0 -137 c0 -267 43 -396 157 -471 84 -56 276 -102 288 -70 3 8 -4 41 -16
74 -16 44 -23 92 -26 182 -6 142 -1 173 27 173 28 0 37 -26 54 -155 8 -60 22
-134 31 -163 l16 -52 29 15 c70 36 101 13 136 -102 23 -75 29 -86 66 -111 23
-15 89 -43 146 -62 107 -35 142 -61 112 -80 -46 -30 -162 3 -357 101 l-132 66
-20 -61 c-58 -181 -55 -265 12 -399 80 -160 219 -303 337 -348 84 -32 215 -37
318 -11 93 24 231 88 282 131 l35 30 -26 48 c-33 61 -57 73 -145 73 -54 0 -77
4 -94 18 -20 17 -21 19 -5 32 10 8 53 16 109 20 50 3 97 9 103 13 16 10 22 63
31 259 5 102 12 172 19 179 21 21 60 1 79 -38 16 -35 16 -47 4 -143 -7 -58
-15 -164 -17 -237 -5 -126 -4 -135 21 -188 37 -81 140 -180 241 -232 77 -39
251 -100 260 -91 3 2 -9 37 -26 77 -17 40 -37 105 -45 144 -21 104 -22 105
-65 132 -54 35 -73 75 -73 160 -1 95 35 170 96 205 55 31 154 37 277 16 106
-17 133 -33 105 -60 -9 -9 -22 -15 -29 -13 -33 13 -145 18 -182 8 -72 -19
-133 -86 -133 -144 0 -13 13 -41 29 -61 19 -24 34 -58 40 -94 38 -206 79 -305
161 -395 67 -73 135 -107 215 -107 113 0 312 72 401 146 104 84 156 257 134
443 -10 85 -34 176 -50 186 -5 3 -57 -31 -117 -76 -59 -46 -137 -104 -173
-131 -75 -58 -103 -60 -108 -9 -3 28 3 39 41 76 25 24 76 60 114 81 135 76
273 234 369 421 41 80 44 93 44 162 0 85 -20 137 -83 225 -70 97 -123 108
-252 50 -188 -85 -316 -107 -476 -85 -103 15 -408 95 -459 121 -36 19 -55 42
-43 54 21 20 142 -3 330 -64 114 -37 130 -40 240 -40 136 0 233 20 368 74 148
60 236 121 262 184 12 29 11 42 -8 120 -29 119 -22 219 25 370 40 127 56 237
56 392 0 259 -68 451 -189 535 l-43 29 -22 -24 c-31 -37 -90 -80 -109 -80 -43
0 -24 53 74 206 99 155 218 429 262 603 21 81 22 108 22 456 0 280 -3 383 -14
425 -33 134 -140 278 -270 364 -73 49 -222 123 -348 174 -105 42 -177 90 -181
120 -5 37 24 37 107 3 42 -18 121 -48 175 -67 54 -20 157 -64 228 -100 143
-72 142 -72 198 -7 84 95 117 232 85 353 -28 108 -31 110 -71 51 -42 -62 -58
-71 -128 -71 -44 0 -56 3 -56 16 0 8 32 52 71 97 112 128 205 343 260 597 19
88 23 135 22 290 0 173 -2 192 -30 300 -17 63 -66 210 -110 325 -44 116 -83
227 -87 247 -8 44 7 78 33 78 25 0 45 -25 76 -93 l27 -58 34 43 c60 76 79 180
48 270 -30 89 -127 172 -261 225 -63 25 -78 27 -218 26 -108 0 -168 -5 -214
-17 -204 -55 -331 -187 -361 -374 -18 -114 -27 -120 -185 -133 -159 -13 -188
-27 -232 -116 -25 -51 -28 -69 -28 -153 0 -109 17 -171 73 -263 35 -60 43
-100 24 -119 -14 -14 -38 1 -151 101 -111 98 -161 132 -254 177 -116 55 -195
68 -397 67 -163 0 -183 -2 -293 -32 -223 -59 -336 -121 -418 -231 -57 -76
-162 -293 -205 -425 -33 -102 -35 -120 -36 -240 -1 -120 0 -134 25 -187 l26
-58 -25 -19 c-14 -11 -67 -34 -118 -51 -119 -39 -198 -86 -259 -152 -59 -65
-89 -127 -95 -193 -4 -45 1 -61 37 -131 52 -98 64 -176 34 -213 -19 -23 -22
-24 -53 -11 -22 9 -46 34 -75 80 -77 120 -111 131 -242 79 l-78 -31 -17 22
c-22 28 -24 98 -2 128 24 35 52 45 169 58 80 9 112 17 121 29 7 9 22 49 34 88
12 40 28 83 35 97 18 34 136 149 183 177 40 25 149 68 195 78 26 5 28 9 22 33
-29 113 -21 276 20 399 49 146 167 392 234 492 130 191 308 270 653 292 117 8
208 8 300 1 118 -9 143 -15 220 -47 48 -20 115 -54 150 -75 52 -31 63 -35 65
-22 2 10 7 74 12 144 7 110 13 135 39 190 33 68 85 129 135 155 32 17 127 23
196 13 l33 -5 27 80 c36 110 72 168 153 247 77 75 178 131 268 148 29 5 124
10 210 10 169 0 258 -12 394 -55 44 -13 81 -23 83 -21 2 2 -2 27 -8 57 -10 48
-20 62 -84 124 -47 46 -118 98 -204 150 -145 88 -177 115 -167 141 15 39 147
-9 302 -111 47 -30 89 -53 95 -50 5 4 9 19 9 34 0 15 12 90 26 167 36 191 25
299 -41 404 -27 43 -111 127 -170 169 l-43 31 -7 -48 c-7 -49 -30 -102 -43
-102 -5 0 -24 32 -43 71 -41 86 -97 139 -178 170 -97 36 -198 45 -328 28z
m308 -2229 c10 -6 19 -21 19 -34 0 -19 -19 -36 -93 -84 -51 -32 -105 -74 -120
-92 -27 -31 -28 -36 -25 -129 l3 -96 80 -52 c113 -73 205 -143 229 -176 25
-34 13 -61 -30 -65 -24 -2 -44 10 -109 68 -174 154 -354 220 -605 220 -248 0
-456 -70 -605 -204 -27 -25 -55 -46 -61 -46 -7 0 -40 13 -75 30 -176 81 -329
76 -437 -15 -98 -82 -99 -179 -7 -485 44 -143 43 -222 -2 -194 -62 38 -156
369 -157 554 -1 79 3 102 21 135 28 53 98 118 155 143 133 58 349 53 432 -12
l30 -23 58 42 c69 51 178 98 307 132 128 34 396 44 548 19 55 -8 107 -18 116
-22 14 -5 16 6 15 104 -2 100 0 114 26 165 29 60 66 90 139 113 51 16 122 18
148 4z m125 -885 c19 -15 19 -15 -1 -30 -11 -9 -63 -29 -116 -45 -77 -24 -109
-40 -159 -80 -35 -28 -74 -53 -88 -57 -14 -3 -74 -3 -133 0 l-109 6 -29 -36
c-30 -36 -51 -99 -51 -151 0 -17 11 -72 24 -123 14 -51 22 -97 20 -101 -18
-29 -105 25 -135 83 -18 37 -20 55 -17 163 3 109 6 126 31 173 15 29 27 56 27
59 0 13 -197 -5 -272 -25 -133 -36 -181 -59 -252 -118 -157 -134 -166 -139
-166 -85 0 64 20 101 79 146 141 109 254 148 479 167 168 14 242 8 323 -27 80
-33 115 -30 243 25 161 69 261 87 302 56z m-996 -666 c0 -12 -15 -52 -34 -88
-70 -138 -99 -298 -77 -431 31 -194 218 -405 390 -441 116 -24 192 16 296 157
79 106 86 107 233 14 43 -27 67 -35 118 -38 55 -4 69 -1 108 22 25 14 71 55
103 91 118 132 185 123 137 -17 -20 -61 -73 -121 -131 -149 -70 -34 -232 -32
-363 4 -86 24 -96 25 -105 10 -79 -128 -116 -156 -234 -181 l-83 -17 4 -115
c5 -144 18 -175 122 -289 42 -47 76 -90 76 -97 0 -6 -7 -17 -15 -24 -35 -29
-141 37 -211 133 -25 34 -51 65 -58 69 -20 13 -140 9 -201 -7 -128 -34 -198
-83 -242 -169 -39 -76 -36 -123 16 -224 52 -100 52 -133 -3 -214 -75 -114 -93
-191 -76 -322 12 -98 34 -136 151 -267 101 -113 116 -134 195 -286 141 -267
237 -372 399 -433 48 -18 92 -24 220 -31 88 -4 183 -8 210 -9 28 0 57 -5 65
-10 13 -8 12 -13 -8 -32 -19 -20 -36 -24 -120 -28 l-97 -5 3 -35 c1 -19 20
-73 42 -118 22 -46 40 -90 40 -97 0 -42 -56 -18 -117 48 -69 75 -99 152 -79
200 7 15 2 17 -34 17 -64 0 -127 18 -230 67 -115 55 -200 136 -271 259 -200
343 -204 349 -284 430 -107 107 -183 146 -299 152 -135 7 -228 -28 -343 -129
-88 -77 -90 -78 -113 -27 -31 69 -27 95 25 144 69 66 193 99 460 122 73 7 80
9 76 27 -2 11 -5 58 -5 105 -1 78 2 91 35 160 20 41 53 97 73 123 l37 48 -40
45 c-51 58 -75 129 -75 220 1 135 82 249 225 317 86 41 112 46 237 48 107 2
122 10 122 68 0 21 3 71 6 112 l7 74 -70 23 c-210 67 -388 277 -410 482 -3 33
-8 60 -10 60 -3 0 -33 -7 -67 -17 -133 -36 -300 -13 -488 67 -39 17 -78 30
-87 30 -11 0 -25 -18 -39 -52 -51 -124 -158 -212 -292 -242 -111 -25 -250 -18
-250 13 0 5 35 17 78 26 251 53 294 85 374 278 17 39 38 80 47 90 22 26 70 16
129 -26 146 -106 352 -153 520 -116 79 16 84 23 93 130 8 101 33 229 49 259
19 35 61 60 101 60 33 0 39 -3 39 -21z m-816 -905 c25 -9 19 -41 -11 -62 -16
-11 -66 -39 -113 -62 -217 -109 -358 -248 -464 -457 -62 -124 -80 -207 -80
-368 0 -119 4 -157 27 -249 82 -328 284 -624 512 -751 50 -27 98 -58 107 -67
29 -29 22 -82 -24 -187 -38 -88 -42 -103 -40 -176 0 -44 10 -115 21 -159 26
-100 27 -166 3 -196 -34 -42 -60 2 -92 161 -22 109 -26 254 -9 358 10 59 9 72
-6 102 -23 45 -132 184 -183 233 l-40 38 -35 -63 c-89 -162 -111 -267 -88
-419 16 -98 46 -161 115 -238 31 -34 56 -67 56 -72 0 -40 -121 22 -192 99 -66
70 -78 106 -85 244 l-6 107 -67 0 c-180 0 -380 70 -380 132 0 26 18 58 33 58
7 0 55 -21 107 -47 86 -43 103 -48 175 -51 101 -5 131 6 140 50 10 45 67 152
115 216 22 29 40 60 40 70 0 21 -22 58 -89 146 -59 78 -110 175 -137 259 -10
31 -22 57 -27 57 -5 0 -34 -23 -65 -51 -82 -72 -181 -119 -257 -120 -108 -2
-150 1 -165 11 -13 8 -12 12 6 30 15 16 42 24 95 31 118 15 158 33 261 118 52
43 98 86 101 95 4 9 1 42 -4 73 -7 34 -9 124 -6 218 4 145 7 169 35 255 17 52
45 117 62 144 17 26 29 51 26 54 -3 2 -29 15 -59 26 -72 30 -160 90 -191 131
-63 83 -96 198 -60 212 28 11 64 -16 112 -84 91 -130 181 -203 250 -203 26 0
40 12 96 80 135 163 390 308 480 274z m1962 -759 c13 -34 -80 -136 -175 -192
-54 -33 -137 -53 -221 -53 -91 0 -94 -4 -64 -78 35 -88 47 -164 41 -262 -7
-104 -32 -178 -93 -275 -25 -41 -44 -79 -42 -84 10 -31 158 -187 208 -221 69
-47 76 -56 59 -76 -21 -25 -81 -11 -146 33 -32 22 -91 63 -132 91 -103 72
-161 89 -246 73 -36 -6 -70 -9 -75 -6 -6 4 -10 24 -10 46 0 28 7 47 23 63 26
26 102 46 170 46 52 0 79 18 111 73 69 119 87 285 47 437 -38 145 -46 156
-131 174 -40 8 -67 32 -53 47 9 9 42 9 145 0 246 -21 284 -13 409 86 99 79
121 93 146 93 13 0 26 -7 29 -15z m-1080 -1627 c12 -12 32 -52 44 -88 13 -36
44 -96 70 -135 62 -92 83 -134 76 -151 -10 -27 -45 -14 -113 42 -64 52 -71 56
-111 51 -62 -7 -229 -90 -273 -137 -46 -48 -64 -116 -56 -209 8 -102 37 -164
127 -275 44 -54 80 -105 80 -112 0 -21 -63 -9 -117 22 -52 30 -136 124 -168
188 -23 46 -25 61 -25 194 l0 144 -62 -7 c-35 -3 -101 -15 -147 -27 -103 -25
-113 -19 -85 49 28 70 68 87 206 90 111 2 140 10 170 49 21 26 89 67 138 82
19 6 73 16 119 22 46 5 86 12 89 14 2 3 -3 36 -12 75 -16 72 -21 143 -10 154
9 9 34 -6 60 -35z"/>
</g>
</svg>
